# xmcd
#
# Track frame offsets: 
#        182
#        10252
#        26035
#        39970
#        55345
#        64295
#        80297
#        87122
#        98387
#        107630
#        120480
#        137340
#        145780
#        161385
#        171420
#        185935
#        197252
#        206217
#        222170
#        232597
#        246037
#
# Disc length: 3498 seconds
#
# Revision: 1
# Processed by: cddbd v1.4PL0 Copyright (c) Steve Scherf et al.
# Submitted via: ExactAudioCopy v0.90b2
#
DISCID=0f0da815
DTITLE=Boxcar Willie - Train Medley
DYEAR=1900
DGENRE=Country
TTITLE0=King Of The Road
TTITLE1=Wabash Cannonball
TTITLE2=You Are My Sunshine
TTITLE3=Boxcar Blues
TTITLE4=Don't Let The Stars Get In Your Eyes
TTITLE5=Your Cheatin' Heart
TTITLE6=I Saw The Light
TTITLE7=Wreck Of The Old '97
TTITLE8=Hank and The Hobo
TTITLE9=Peace In The Valley
TTITLE10=Mule Train
TTITLE11=Hey Good Lookin'
TTITLE12=Kaw Liga
TTITLE13=Move It On Over
TTITLE14=London Leaves
TTITLE15=Rollin' In My Sweet Baby's Arms
TTITLE16=Divorce Me C.O.D.
TTITLE17=Red River Valley
TTITLE18=Heaven
TTITLE19=San Antonio Rose
TTITLE20=Train Medley
EXTD=
EXTT0=
EXTT1=
EXTT2=
EXTT3=
EXTT4=
EXTT5=
EXTT6=
EXTT7=
EXTT8=
EXTT9=
EXTT10=
EXTT11=
EXTT12=
EXTT13=
EXTT14=
EXTT15=
EXTT16=
EXTT17=
EXTT18=
EXTT19=
EXTT20=
PLAYORDER=
